<svg width="1180" height="140" viewBox="0 0 1180 140" fill="none" xmlns="http://www.w3.org/2000/svg">
<g clip-path="url(#clip0_4244_303857)">
<rect width="1180" height="140" fill="url(#paint0_linear_4244_303857)"/>
<rect opacity="0.2" x="1" y="-70" width="1178" height="518" fill="#F7F4FB"/>
<rect x="928.77" y="-8" width="80" height="80" rx="8" transform="rotate(25.7616 928.77 -8)" fill="#A9E6EF" fill-opacity="0.6"/>
<path d="M958.247 40.4448L949.646 40.8554L949.105 32.3469C949.071 31.3191 948.131 30.4534 947.087 30.6088L945.213 30.7247C944.174 30.7435 943.312 31.6601 943.484 32.6945L944.025 41.203L935.424 41.6138C934.385 41.6326 933.523 42.5492 933.695 43.5836L933.84 45.4376C933.874 46.4654 934.814 47.3311 935.858 47.1756L944.459 46.7649L944.999 55.2735C945.034 56.3013 945.974 57.167 947.018 57.0116L948.891 56.8957C949.931 56.8769 950.793 55.9603 950.62 54.9259L950.08 46.4173L958.68 46.0066C959.72 45.9878 960.582 45.0711 960.409 44.0368L960.265 42.1828C960.159 41.2201 959.286 40.4259 958.247 40.4448Z" fill="#41C7DA"/>
<rect x="1083.24" y="56.8296" width="80" height="80" rx="8" transform="rotate(34.5863 1083.24 56.8296)" fill="#FFACC2" fill-opacity="0.4"/>
<path d="M1107.55 110.469L1082.79 109.307C1081.65 109.256 1080.72 110.111 1080.67 111.224L1080.53 113.253C1080.48 114.367 1081.35 115.281 1082.49 115.332L1107.25 116.494C1108.38 116.546 1109.31 115.691 1109.36 114.577L1109.5 112.548C1109.61 111.547 1108.77 110.546 1107.55 110.469Z" fill="#F889A6"/>
<rect x="36.3589" y="84" width="80" height="80" rx="8" transform="rotate(-30 36.3589 84)" fill="#FFD8B2" fill-opacity="0.8"/>
<rect x="263.21" y="70.5146" width="80" height="80" rx="8" transform="rotate(-158.515 263.21 70.5146)" fill="#E6B2FF" fill-opacity="0.8"/>
<path d="M240.943 15.5289C239 15.3808 237.468 13.713 237.498 11.8122C237.583 9.8795 239.208 8.40565 241.117 8.49818C243.026 8.5907 244.593 10.3142 244.562 12.215C244.532 14.1158 242.907 15.5896 240.943 15.5289ZM236.949 31.6399C237.034 29.7072 238.659 28.2334 240.568 28.3259C242.477 28.4184 244.044 30.1418 244.013 32.0427C243.983 33.9435 242.304 35.4492 240.394 35.3567C238.43 35.296 236.898 33.6282 236.949 31.6399ZM228.256 22.0936L228.299 20.3359C228.298 19.3577 229.127 18.6486 230.109 18.6789L251.567 19.9585C252.549 19.9888 253.288 20.8387 253.289 21.8169L253.246 23.5745C253.247 24.5528 252.418 25.2619 251.436 25.2316L229.978 23.952C229.017 23.8341 228.224 23.0162 228.256 22.0936Z" fill="#B156E6"/>
<path d="M103.31 102.34L80.3563 102.449C79.3214 102.433 78.4327 103.332 78.4241 104.356L78.4645 106.224C78.456 107.247 79.3717 108.132 80.4067 108.148L103.361 108.039C104.395 108.055 105.284 107.156 105.293 106.132L105.252 104.264C105.248 103.158 104.332 102.273 103.31 102.34ZM103.125 90.9542L80.1716 91.0629C79.1367 91.0472 78.2479 91.9466 78.2394 92.9699L78.2798 94.8378C78.2712 95.8612 79.187 96.7464 80.2219 96.7621L103.176 96.6535C104.211 96.6692 105.099 95.7698 105.108 94.7464L105.068 92.8786C105.063 91.772 104.244 90.9573 103.125 90.9542Z" fill="#FDA451"/>
<path d="M319.32 91.384C317.208 91.384 315.544 89.656 315.544 87.608V51.704C315.544 49.656 317.208 47.928 319.32 47.928C321.368 47.928 323.032 49.656 323.032 51.704V87.608C323.032 89.656 321.368 91.384 319.32 91.384ZM349.515 59.32C356.171 59.32 359.499 62.904 359.499 69.24V87.992C359.499 89.848 357.963 91.384 356.107 91.384C354.315 91.384 352.779 89.848 352.779 87.992V71.672C352.779 66.872 350.347 65.272 346.571 65.272C343.115 65.272 340.171 67.32 338.635 69.432V87.992C338.635 89.848 337.099 91.384 335.307 91.384C333.451 91.384 331.915 89.848 331.915 87.992V63.096C331.915 61.24 333.451 59.704 335.243 59.704C337.099 59.704 338.635 61.24 338.635 63.096V64.312C340.683 61.88 344.651 59.32 349.515 59.32ZM380.899 85.624C382.627 85.624 383.715 86.84 383.715 88.44C383.715 89.72 383.011 90.616 381.923 91C380.835 91.448 379.363 91.768 377.507 91.768C372.323 91.768 369.571 88.952 369.571 83.832V65.976H367.011C365.411 65.976 364.067 64.632 364.067 63.032C364.067 61.432 365.411 60.088 367.011 60.088H369.571V54.648C369.571 52.792 371.107 51.256 372.963 51.256C374.755 51.256 376.291 52.792 376.291 54.648V60.088H380.003C381.603 60.088 382.947 61.432 382.947 63.032C382.947 64.632 381.603 65.976 380.003 65.976H376.291V82.168C376.291 84.28 377.315 85.816 379.235 85.816C380.003 85.816 380.387 85.624 380.899 85.624ZM386.745 75.512C386.745 66.552 393.273 59.32 402.425 59.32C411.705 59.32 417.657 66.424 417.657 74.616C417.657 76.6 416.249 77.752 413.689 77.752H393.785C394.297 82.424 397.817 86.264 403.641 86.264C405.881 86.264 408.505 85.56 410.681 84.216C411.065 83.96 411.577 83.832 412.153 83.832C413.625 83.832 414.841 85.048 414.841 86.52C414.841 87.48 414.329 88.248 413.625 88.76C410.553 90.808 406.841 91.768 402.937 91.768C393.657 91.768 386.745 85.304 386.745 75.512ZM402.425 64.824C396.665 64.824 394.041 69.24 393.72 73.016H411.129C411.001 69.368 408.505 64.824 402.425 64.824ZM438.753 59.576C440.674 59.576 441.506 61.048 441.506 62.712C441.506 64.248 440.354 65.592 438.05 65.912C435.746 66.232 432.354 67.768 431.01 69.944V87.992C431.01 89.848 429.474 91.384 427.682 91.384C425.826 91.384 424.29 89.848 424.29 87.992V63.096C424.29 61.24 425.826 59.704 427.618 59.704C429.474 59.704 431.01 61.24 431.01 63.096V64.632C432.674 62.456 434.978 60.6 436.962 59.96C437.73 59.704 438.178 59.576 438.753 59.576ZM459.213 59.32C466.061 59.32 472.077 62.2 472.077 70.52V87.992C472.077 89.848 470.541 91.384 468.685 91.384C466.893 91.384 465.357 89.848 465.357 87.992V87.672C463.053 90.296 459.469 91.768 455.373 91.768C450.317 91.768 444.621 88.376 444.621 81.528C444.621 74.424 450.317 71.48 455.373 71.48C459.533 71.48 463.117 72.824 465.357 75.448V70.84C465.357 67.256 462.413 65.08 458.125 65.08C455.501 65.08 453.197 65.784 450.893 67.384C450.509 67.64 449.933 67.832 449.357 67.832C447.885 67.832 446.669 66.616 446.669 65.144C446.669 64.248 447.181 63.416 447.821 62.968C451.213 60.472 455.053 59.32 459.213 59.32ZM457.997 87.16C460.941 87.16 463.821 86.072 465.357 83.96V79.288C463.821 77.176 460.941 76.088 457.997 76.088C454.221 76.088 451.405 78.264 451.405 81.656C451.405 84.984 454.221 87.16 457.997 87.16ZM478.87 75.512C478.87 66.168 485.462 59.32 494.87 59.32C499.222 59.32 502.358 60.664 504.662 62.648C505.302 63.16 505.75 64.056 505.75 64.952C505.75 66.616 504.406 67.96 502.742 67.96C501.974 67.96 501.27 67.704 500.758 67.256C499.158 65.912 497.366 65.272 495.19 65.272C489.558 65.272 485.845 69.496 485.845 75.512C485.845 81.528 489.558 85.816 495.19 85.816C497.366 85.816 499.158 85.176 500.758 83.832C501.27 83.384 501.974 83.128 502.678 83.128C504.406 83.128 505.75 84.472 505.75 86.136C505.75 87.032 505.302 87.928 504.662 88.44C502.358 90.424 499.222 91.768 494.87 91.768C485.462 91.768 478.87 84.92 478.87 75.512ZM525.274 85.624C527.002 85.624 528.09 86.84 528.09 88.44C528.09 89.72 527.386 90.616 526.298 91C525.21 91.448 523.738 91.768 521.882 91.768C516.698 91.768 513.946 88.952 513.946 83.832V65.976H511.386C509.786 65.976 508.442 64.632 508.442 63.032C508.442 61.432 509.786 60.088 511.386 60.088H513.946V54.648C513.946 52.792 515.482 51.256 517.338 51.256C519.13 51.256 520.666 52.792 520.666 54.648V60.088H524.378C525.978 60.088 527.322 61.432 527.322 63.032C527.322 64.632 525.978 65.976 524.378 65.976H520.666V82.168C520.666 84.28 521.69 85.816 523.61 85.816C524.378 85.816 524.762 85.624 525.274 85.624ZM536.368 54.072C534.128 54.072 532.208 52.216 532.208 49.912C532.208 47.608 534.128 45.752 536.368 45.752C538.672 45.752 540.528 47.608 540.528 49.912C540.528 52.216 538.672 54.072 536.368 54.072ZM536.368 91.384C534.576 91.384 533.04 89.848 533.04 87.992V63.096C533.04 61.24 534.576 59.704 536.432 59.704C538.224 59.704 539.76 61.24 539.76 63.096V87.992C539.76 89.848 538.224 91.384 536.368 91.384ZM571.645 59.704C573.501 59.704 574.973 61.176 574.973 63.032C574.973 63.48 574.845 63.928 574.717 64.312L564.989 88.184C564.221 90.104 562.365 91.384 560.253 91.384C558.077 91.384 556.221 90.104 555.453 88.184L545.725 64.248C545.597 63.864 545.469 63.48 545.469 63.032C545.469 61.176 546.941 59.704 548.733 59.704C550.141 59.704 551.421 60.6 551.869 61.816L560.189 83.32L568.509 61.816C568.957 60.6 570.237 59.704 571.645 59.704ZM578.745 75.512C578.745 66.552 585.273 59.32 594.425 59.32C603.705 59.32 609.657 66.424 609.657 74.616C609.657 76.6 608.249 77.752 605.689 77.752H585.785C586.297 82.424 589.817 86.264 595.641 86.264C597.881 86.264 600.505 85.56 602.681 84.216C603.065 83.96 603.577 83.832 604.153 83.832C605.625 83.832 606.841 85.048 606.841 86.52C606.841 87.48 606.329 88.248 605.625 88.76C602.553 90.808 598.841 91.768 594.937 91.768C585.657 91.768 578.745 85.304 578.745 75.512ZM594.425 64.824C588.665 64.824 586.041 69.24 585.72 73.016H603.129C603.001 69.368 600.505 64.824 594.425 64.824Z" fill="#181824"/>
<path d="M665.111 85.624C665.495 86.2 665.815 86.776 665.815 87.992C665.815 89.464 664.407 91.384 662.295 91.384C661.079 91.384 659.863 90.744 659.159 89.784L649.111 75.064H640.407V87.608C640.407 89.656 638.743 91.384 636.695 91.384C634.583 91.384 632.919 89.656 632.919 87.608V52.28C632.919 49.72 634.327 48.312 636.887 48.312H651.671C660.119 48.312 665.623 53.816 665.623 61.688C665.623 68.664 661.463 72.696 656.791 73.976L665.111 85.624ZM640.407 54.904V68.472H650.647C654.871 68.472 657.943 65.784 657.943 61.688C657.943 57.592 654.871 54.904 650.647 54.904H640.407ZM669.057 75.512C669.057 66.552 675.585 59.32 684.737 59.32C694.017 59.32 699.969 66.424 699.969 74.616C699.969 76.6 698.561 77.752 696.001 77.752H676.097C676.609 82.424 680.129 86.264 685.953 86.264C688.193 86.264 690.817 85.56 692.993 84.216C693.377 83.96 693.889 83.832 694.465 83.832C695.937 83.832 697.153 85.048 697.153 86.52C697.153 87.48 696.641 88.248 695.937 88.76C692.865 90.808 689.153 91.768 685.249 91.768C675.969 91.768 669.057 85.304 669.057 75.512ZM684.737 64.824C678.977 64.824 676.353 69.24 676.033 73.016H693.441C693.313 69.368 690.817 64.824 684.737 64.824ZM729.77 59.704C731.626 59.704 733.098 61.176 733.098 63.032C733.098 63.48 732.97 63.928 732.842 64.312L723.114 88.184C722.346 90.104 720.49 91.384 718.378 91.384C716.202 91.384 714.346 90.104 713.578 88.184L703.85 64.248C703.722 63.864 703.594 63.48 703.594 63.032C703.594 61.176 705.066 59.704 706.858 59.704C708.266 59.704 709.546 60.6 709.994 61.816L718.314 83.32L726.634 61.816C727.082 60.6 728.362 59.704 729.77 59.704ZM742.118 54.072C739.878 54.072 737.958 52.216 737.958 49.912C737.958 47.608 739.878 45.752 742.118 45.752C744.422 45.752 746.278 47.608 746.278 49.912C746.278 52.216 744.422 54.072 742.118 54.072ZM742.118 91.384C740.326 91.384 738.79 89.848 738.79 87.992V63.096C738.79 61.24 740.326 59.704 742.182 59.704C743.974 59.704 745.51 61.24 745.51 63.096V87.992C745.51 89.848 743.974 91.384 742.118 91.384ZM753.395 88.504C752.627 87.992 752.115 87.096 752.115 86.136C752.115 84.536 753.395 83.256 754.995 83.256C755.571 83.256 756.147 83.448 756.595 83.704C759.027 85.304 762.099 86.456 765.107 86.456C769.139 86.456 771.187 84.984 771.187 82.68C771.187 79.992 767.923 79.032 764.147 78.2C758.835 77.048 752.499 75.64 752.499 68.728C752.499 63.672 756.851 59.32 764.659 59.32C768.819 59.32 772.211 60.472 774.963 62.328C775.667 62.84 776.179 63.608 776.179 64.568C776.179 66.04 774.963 67.256 773.491 67.256C772.979 67.256 772.403 67.064 772.019 66.808C770.035 65.528 767.475 64.696 764.723 64.696C761.203 64.696 758.963 65.976 758.963 68.152C758.963 70.52 762.035 71.352 765.683 72.184C771.059 73.336 777.651 74.872 777.651 82.168C777.651 87.608 773.107 91.768 764.787 91.768C760.563 91.768 756.595 90.68 753.395 88.504ZM787.743 54.072C785.503 54.072 783.583 52.216 783.583 49.912C783.583 47.608 785.503 45.752 787.743 45.752C790.047 45.752 791.903 47.608 791.903 49.912C791.903 52.216 790.047 54.072 787.743 54.072ZM787.743 91.384C785.951 91.384 784.415 89.848 784.415 87.992V63.096C784.415 61.24 785.951 59.704 787.807 59.704C789.599 59.704 791.135 61.24 791.135 63.096V87.992C791.135 89.848 789.599 91.384 787.743 91.384ZM813.804 91.768C804.012 91.768 797.932 84.408 797.932 75.512C797.932 66.68 804.012 59.32 813.804 59.32C823.724 59.32 829.74 66.68 829.74 75.512C829.74 84.408 823.724 91.768 813.804 91.768ZM813.804 85.816C819.564 85.816 822.764 81.016 822.764 75.512C822.764 70.072 819.564 65.272 813.804 65.272C808.108 65.272 804.908 70.072 804.908 75.512C804.908 81.016 808.108 85.816 813.804 85.816ZM854.14 59.32C860.796 59.32 864.124 62.904 864.124 69.24V87.992C864.124 89.848 862.588 91.384 860.732 91.384C858.94 91.384 857.404 89.848 857.404 87.992V71.672C857.404 66.872 854.972 65.272 851.196 65.272C847.74 65.272 844.796 67.32 843.26 69.432V87.992C843.26 89.848 841.724 91.384 839.932 91.384C838.076 91.384 836.54 89.848 836.54 87.992V63.096C836.54 61.24 838.076 59.704 839.868 59.704C841.724 59.704 843.26 61.24 843.26 63.096V64.312C845.308 61.88 849.276 59.32 854.14 59.32Z" fill="#5322FF"/>
<path opacity="0.15" d="M628 95.7669C689.591 91.1274 796.211 88.6984 872.185 96.2332" stroke="#5322FF" stroke-width="10" stroke-linecap="round"/>
</g>
<defs>
<linearGradient id="paint0_linear_4244_303857" x1="0" y1="70" x2="1180" y2="70" gradientUnits="userSpaceOnUse">
<stop stop-color="#E3DCFC"/>
<stop offset="1" stop-color="#FDFCFF"/>
</linearGradient>
<clipPath id="clip0_4244_303857">
<rect width="1180" height="140" fill="white"/>
</clipPath>
</defs>
</svg>
