<svg width="37" height="37" viewBox="0 0 37 37" fill="none" xmlns="http://www.w3.org/2000/svg">
<g filter="url(#filter0_d_4246_255086)">
<rect x="4" width="28.2016" height="28.2016" rx="3.47765" fill="url(#paint0_linear_4246_255086)"/>
<path opacity="0.3" fill-rule="evenodd" clip-rule="evenodd" d="M7.47765 0C5.557 0 4 1.55699 4 3.47765V24.7239C4 26.6446 5.55699 28.2016 7.47765 28.2016H28.7239C30.6446 28.2016 32.2016 26.6446 32.2016 24.7239V3.47765C32.2016 1.557 30.6446 0 28.7239 0H7.47765ZM8.02103 0.923751C6.28044 0.923751 4.86941 2.33478 4.86941 4.07538V24.1805C4.86941 25.9211 6.28044 27.3322 8.02104 27.3322H28.1262C29.8668 27.3322 31.2778 25.9211 31.2778 24.1805V4.07537C31.2778 2.33478 29.8668 0.923751 28.1262 0.923751H8.02103Z" fill="url(#paint1_radial_4246_255086)"/>
<path opacity="0.3" fill-rule="evenodd" clip-rule="evenodd" d="M7.47765 28.2017C5.557 28.2017 4 26.6447 4 24.724V3.47774C4 1.55708 5.55699 8.39233e-05 7.47765 8.39233e-05H28.7239C30.6446 8.39233e-05 32.2016 1.55708 32.2016 3.47773V24.724C32.2016 26.6447 30.6446 28.2017 28.7239 28.2017H7.47765ZM8.02103 27.2779C6.28044 27.2779 4.86941 25.8669 4.86941 24.1263V4.02116C4.86941 2.28056 6.28044 0.869535 8.02104 0.869535H28.1262C29.8668 0.869535 31.2778 2.28057 31.2778 4.02116V24.1263C31.2778 25.8669 29.8668 27.2779 28.1262 27.2779H8.02103Z" fill="url(#paint2_radial_4246_255086)"/>
<path d="M22.0122 21.461L16.3078 23.0941C16.1926 23.1265 16.0723 23.1363 15.9533 23.123C15.8343 23.1104 15.719 23.0742 15.6143 23.0166C15.5095 22.9591 15.4172 22.8816 15.3427 22.7885C15.2677 22.6961 15.2124 22.5895 15.1801 22.4753L10.8642 7.65875C10.831 7.54476 10.8206 7.42544 10.8335 7.30749C10.847 7.18944 10.8841 7.07522 10.9424 6.97145C10.9999 6.86763 11.0776 6.77615 11.171 6.7023C11.2647 6.62819 11.3721 6.57288 11.4871 6.53955L17.3894 4.85169C18.0568 4.65551 18.7666 4.65007 19.437 4.83595C20.1074 5.02183 20.7112 5.3915 21.1791 5.90244C22.9312 7.85182 22.5154 10.3851 20.9152 11.746C21.9488 11.8064 22.9382 12.1825 23.7474 12.8226C24.5574 13.4628 25.1471 14.3362 25.4351 15.3225C25.6167 15.9483 25.6725 16.6034 25.5993 17.2505C25.5269 17.8974 25.3261 18.5237 25.0086 19.0935C24.691 19.664 24.2629 20.1667 23.749 20.573C23.236 20.9797 22.6467 21.2815 22.0152 21.461H22.0122Z" fill="url(#paint3_linear_4246_255086)"/>
<path opacity="0.3" d="M25.4322 15.3223C25.1441 14.336 24.5545 13.4626 23.7445 12.8225C22.9353 12.1823 21.9458 11.8062 20.9122 11.7459C22.5125 10.385 22.9283 7.85165 21.1761 5.90227C20.7081 5.39163 20.1042 5.02216 19.4339 4.8363C18.7636 4.65045 18.0539 4.65571 17.3865 4.85152L11.4842 6.53938C11.3691 6.57271 11.2618 6.62802 11.1681 6.70213C11.0747 6.77599 10.997 6.86747 10.9395 6.97128C10.8811 7.07506 10.8441 7.18927 10.8306 7.30732C10.8177 7.42527 10.8281 7.54459 10.8613 7.65858V7.68138L15.797 6.26875C16.4552 6.07792 17.1548 6.07792 17.813 6.26875C18.4719 6.4575 19.062 6.83018 19.513 7.34229C21.1531 9.22173 20.7404 11.6364 19.2138 12.9426C20.4289 12.9545 21.5902 13.4414 22.445 14.2974C23.3013 15.153 23.7811 16.3098 23.7798 17.515C23.7796 18.5128 23.4498 19.4832 22.8408 20.2778C22.2319 21.073 21.3774 21.6492 20.4075 21.9185L20.3492 21.9368L22.0046 21.4624C22.6357 21.2819 23.2248 20.9802 23.7383 20.5744C24.2515 20.1677 24.679 19.665 24.9964 19.0949C25.3138 18.5249 25.515 17.8987 25.5887 17.2519C25.6606 16.6046 25.6043 15.9497 25.423 15.3238L25.4322 15.3223Z" fill="#120B31"/>
<path fill-rule="evenodd" clip-rule="evenodd" d="M13.988 23.0131L9.56769 7.83436C9.41923 7.32527 9.48053 6.7786 9.73815 6.31424L9.73826 6.31404C9.99704 5.84881 10.4316 5.50443 10.9464 5.35652L17.01 3.62153L17.0101 3.62151C17.915 3.36285 18.97 3.42481 19.9365 3.72627C20.903 4.0277 21.8018 4.57509 22.3855 5.31083L22.3856 5.31101C23.8154 7.11745 23.9216 9.25472 23.1169 10.9572C25.5143 11.9849 27.2441 14.4608 26.9029 17.6081L26.9029 17.6084C26.7824 18.7026 26.2272 19.8072 25.4482 20.71C24.6691 21.6129 23.6518 22.3304 22.5868 22.6353L22.5868 22.6354L16.4896 24.3794L16.4896 24.3794C15.9759 24.5262 15.4246 24.4655 14.956 24.2106L14.9559 24.2105C14.7231 24.0838 14.5178 23.9128 14.3517 23.7073C14.1856 23.5019 14.062 23.266 13.988 23.0131ZM16.3079 23.0943L22.0139 21.4612L22.0154 21.4627C22.6469 21.2832 23.2362 20.9814 23.7491 20.5747C24.2631 20.1685 24.6912 19.6657 25.0088 19.0952C25.3265 18.5255 25.5278 17.8992 25.601 17.2522C25.6745 16.605 25.6182 15.9497 25.4353 15.3241C25.1478 14.3376 24.5581 13.464 23.7476 12.8243C22.9389 12.1842 21.95 11.808 20.9169 11.7477C22.5171 10.3853 22.9329 7.84743 21.1731 5.89652C20.7074 5.38678 20.1059 5.01781 19.4378 4.83212C18.7709 4.64623 18.0644 4.65152 17.4003 4.84734L11.4888 6.53972C11.3738 6.57305 11.2664 6.62837 11.1728 6.70247C11.0789 6.77632 11.0007 6.86778 10.9426 6.97162C10.8854 7.07577 10.8489 7.18986 10.8352 7.30766C10.8215 7.4251 10.832 7.54403 10.8659 7.65736L15.1803 22.4769C15.2139 22.5909 15.2697 22.6973 15.3444 22.7902C15.4186 22.883 15.511 22.9601 15.616 23.0168C15.7205 23.0748 15.8359 23.111 15.9551 23.1232C16.0735 23.1363 16.1933 23.1265 16.3079 23.0943Z" fill="white"/>
</g>
<defs>
<filter id="filter0_d_4246_255086" x="0" y="0" width="36.2017" height="36.2017" filterUnits="userSpaceOnUse" color-interpolation-filters="sRGB">
<feFlood flood-opacity="0" result="BackgroundImageFix"/>
<feColorMatrix in="SourceAlpha" type="matrix" values="0 0 0 0 0 0 0 0 0 0 0 0 0 0 0 0 0 0 127 0" result="hardAlpha"/>
<feOffset dy="4"/>
<feGaussianBlur stdDeviation="2"/>
<feComposite in2="hardAlpha" operator="out"/>
<feColorMatrix type="matrix" values="0 0 0 0 0 0 0 0 0 0 0 0 0 0 0 0 0 0 0.25 0"/>
<feBlend mode="normal" in2="BackgroundImageFix" result="effect1_dropShadow_4246_255086"/>
<feBlend mode="normal" in="SourceGraphic" in2="effect1_dropShadow_4246_255086" result="shape"/>
</filter>
<linearGradient id="paint0_linear_4246_255086" x1="14.8982" y1="28.2016" x2="7.05455" y2="2.37548" gradientUnits="userSpaceOnUse">
<stop stop-color="#761E92"/>
<stop offset="1" stop-color="#A523BB"/>
</linearGradient>
<radialGradient id="paint1_radial_4246_255086" cx="0" cy="0" r="1" gradientUnits="userSpaceOnUse" gradientTransform="translate(18.0736 1.19544) rotate(90) scale(4.12971 23.7351)">
<stop stop-color="white"/>
<stop offset="1" stop-color="white" stop-opacity="0"/>
</radialGradient>
<radialGradient id="paint2_radial_4246_255086" cx="0" cy="0" r="1" gradientUnits="userSpaceOnUse" gradientTransform="translate(18.0736 27.0062) rotate(-90) scale(4.12971 23.7351)">
<stop/>
<stop offset="1" stop-opacity="0"/>
</radialGradient>
<linearGradient id="paint3_linear_4246_255086" x1="16.5484" y1="23.1287" x2="10.4506" y2="7.00165" gradientUnits="userSpaceOnUse">
<stop stop-color="#761E92"/>
<stop offset="1" stop-color="#A523BB"/>
</linearGradient>
</defs>
</svg>
